# xmcd
#
# Track frame offsets: 
#        225
#        10587
#        21132
#        32560
#        42612
#        53012
#        61327
#        76930
#        90095
#        99760
#        110865
#        122695
#        134255
#
# Disc length: 1842 seconds
#
# Revision: 0
# Processed by: cddbd v1.4PL0 Copyright (c) Steve Scherf et al.
# Submitted via: ExactAudioCopy v0.90b4
#
DISCID=96072f0d
DTITLE=Stompin' Tom Connors - Merry Christmas Everybody
DYEAR=1970
DGENRE=Folk
TTITLE0=Merry Christmas Everybody
TTITLE1=Merry Bells
TTITLE2=Christmas Angel
TTITLE3=Down on Christmas
TTITLE4=Jingle Jangle Aeroplane
TTITLE5=Kiss Me the New Year In
TTITLE6=Mr. Snowflake
TTITLE7=Story of Jesus
TTITLE8=An Orphan's Christmas
TTITLE9=One Blue Light
TTITLE10=Gloria
TTITLE11=Our Father
TTITLE12=Christmas Greetings
EXTD=
EXTT0=
EXTT1=
EXTT2=
EXTT3=
EXTT4=
EXTT5=
EXTT6=
EXTT7=
EXTT8=
EXTT9=
EXTT10=
EXTT11=
EXTT12=
PLAYORDER=
